<?xml version="1.0" encoding="UTF-8" standalone="no"?>
<!DOCTYPE svg PUBLIC "-//W3C//DTD SVG 1.1//EN" "http://www.w3.org/Graphics/SVG/1.1/DTD/svg11.dtd">
<svg width="100%" height="100%" viewBox="0 0 1153 1153" version="1.1" xmlns="http://www.w3.org/2000/svg" xmlns:xlink="http://www.w3.org/1999/xlink" xml:space="preserve" xmlns:serif="http://www.serif.com/" style="fill-rule:evenodd;clip-rule:evenodd;stroke-linecap:round;stroke-linejoin:round;stroke-miterlimit:1.5;">
    <g transform="matrix(1,0,0,1,-5327.11,-708.514)">
        <g transform="matrix(0.864283,0,0,0.864283,3156.08,173.957)">
            <rect id="Artboard2" x="2511.93" y="618.498" width="1333.87" height="1333.87" style="fill:none;"/>
            <g id="Artboard21" serif:id="Artboard2">
                <g transform="matrix(1.15703,0,0,1.15703,-3651.68,-201.273)">
                    <path d="M6461.17,975.376C6461.17,838.452 6350.01,727.287 6213.08,727.287L5593.97,727.287C5457.04,727.287 5345.88,838.452 5345.88,975.376L5345.88,1594.49C5345.88,1731.41 5457.04,1842.58 5593.97,1842.58L6213.08,1842.58C6350.01,1842.58 6461.17,1731.41 6461.17,1594.49L6461.17,975.376Z" style="fill:none;"/>
                    <clipPath id="_clip1">
                        <path d="M6461.17,975.376C6461.17,838.452 6350.01,727.287 6213.08,727.287L5593.97,727.287C5457.04,727.287 5345.88,838.452 5345.88,975.376L5345.88,1594.49C5345.88,1731.41 5457.04,1842.58 5593.97,1842.58L6213.08,1842.58C6350.01,1842.58 6461.17,1731.41 6461.17,1594.49L6461.17,975.376Z"/>
                    </clipPath>
                    <g clip-path="url(#_clip1)">
                        <g transform="matrix(1.31788,0,0,1.50133,4727.57,224.585)">
                            <g id="App-Store" serif:id="App Store">
                                <g>
                                    <g>
                                        <g transform="matrix(1.17973,0,0,1.03323,-13.9357,-131.381)">
                                            <path d="M563.068,1262.26L519.962,1165.42C519.962,1165.42 475.438,1059.7 612.86,1027.7C612.86,1027.7 640.503,1024.14 712.198,1028.35C783.894,1032.55 912.991,1040.13 1004.85,945.967C1096.7,851.808 1108.05,752.764 1052.55,650.756C997.052,548.747 845.733,555.6 790.34,614.964C734.947,674.328 760.572,791.231 828.831,800.867C897.09,810.504 921.378,774.727 925.036,750.853C930.178,717.292 872.943,688.187 868.137,716.462C868.137,716.462 911.485,737.591 886.912,748.778C862.34,759.966 812.204,751.895 818.674,710.272C825.144,668.649 884.096,635.4 922.048,668.094C960,700.788 998.818,794.914 942.865,856.359C886.912,917.803 836.627,969.722 676.564,935.295C516.502,900.868 373.573,899.254 312.893,1074.46C312.893,1074.46 284.784,1178.44 334.479,1276.82C384.173,1375.2 419.054,1398.68 453.89,1422.45L563.068,1262.26Z" style="fill:none;"/>
                                            <clipPath id="_clip2">
                                                <path d="M563.068,1262.26L519.962,1165.42C519.962,1165.42 475.438,1059.7 612.86,1027.7C612.86,1027.7 640.503,1024.14 712.198,1028.35C783.894,1032.55 912.991,1040.13 1004.85,945.967C1096.7,851.808 1108.05,752.764 1052.55,650.756C997.052,548.747 845.733,555.6 790.34,614.964C734.947,674.328 760.572,791.231 828.831,800.867C897.09,810.504 921.378,774.727 925.036,750.853C930.178,717.292 872.943,688.187 868.137,716.462C868.137,716.462 911.485,737.591 886.912,748.778C862.34,759.966 812.204,751.895 818.674,710.272C825.144,668.649 884.096,635.4 922.048,668.094C960,700.788 998.818,794.914 942.865,856.359C886.912,917.803 836.627,969.722 676.564,935.295C516.502,900.868 373.573,899.254 312.893,1074.46C312.893,1074.46 284.784,1178.44 334.479,1276.82C384.173,1375.2 419.054,1398.68 453.89,1422.45L563.068,1262.26Z"/>
                                            </clipPath>
                                            <g clip-path="url(#_clip2)">
                                                <path d="M829.435,741.114C829.435,741.114 795.748,704.508 833.603,662.076C860.974,631.393 965.826,615.769 999.016,720.448C1032.2,825.128 917.745,967.86 764.555,941.682L874.566,852.538L947.918,792.758L937.447,705.039L886.912,678.599L853.798,716.541L829.435,741.114Z" style="fill:none;stroke:white;stroke-width:16.1px;"/>
                                                <path d="M526.868,1350.83C526.868,1350.83 418.41,1252.96 453.89,1130.2C489.371,1007.44 652.831,994.225 746.67,1034.53L704.189,1176.54L646.282,1360.82L526.868,1350.83Z" style="fill:none;stroke:white;stroke-width:16.1px;"/>
                                            </g>
                                            <path d="M563.068,1262.26L519.962,1165.42C519.962,1165.42 475.438,1059.7 612.86,1027.7C612.86,1027.7 640.503,1024.14 712.198,1028.35C783.894,1032.55 912.991,1040.13 1004.85,945.967C1096.7,851.808 1108.05,752.764 1052.55,650.756C997.052,548.747 845.733,555.6 790.34,614.964C734.947,674.328 760.572,791.231 828.831,800.867C897.09,810.504 921.378,774.727 925.036,750.853C930.178,717.292 872.943,688.187 868.137,716.462C868.137,716.462 911.485,737.591 886.912,748.778C862.34,759.966 812.204,751.895 818.674,710.272C825.144,668.649 884.096,635.4 922.048,668.094C960,700.788 998.818,794.914 942.865,856.359C886.912,917.803 836.627,969.722 676.564,935.295C516.502,900.868 373.573,899.254 312.893,1074.46C312.893,1074.46 284.784,1178.44 334.479,1276.82C384.173,1375.2 419.054,1398.68 453.89,1422.45L563.068,1262.26Z" style="fill:none;stroke:white;stroke-width:16.74px;"/>
                                        </g>
                                        <g transform="matrix(0.972243,-0.623392,0.779641,1.21593,-581.527,109.777)">
                                            <path d="M441.408,961.153L221.703,1088L736.68,1385.32L1401.79,1001.32L886.81,704L581.047,880.532" style="fill:none;stroke:white;stroke-width:14.29px;"/>
                                        </g>
                                        <g transform="matrix(0.972243,-0.623392,0.779641,1.21593,-581.527,109.777)">
                                            <path d="M737.767,1385.95L1402.88,1001.95L886.81,704L221.703,1088L737.767,1385.95Z" style="fill:none;"/>
                                            <clipPath id="_clip3">
                                                <path d="M737.767,1385.95L1402.88,1001.95L886.81,704L221.703,1088L737.767,1385.95Z"/>
                                            </clipPath>
                                            <g clip-path="url(#_clip3)">
                                                <g transform="matrix(0.859892,0.440857,-0.482886,0.602178,526.415,71.555)">
                                                    <path d="M421.19,1309.43C421.19,1309.43 506.249,1132.86 517.532,1098.41C526.58,1070.78 551.702,1041.94 612.86,1027.7C612.86,1027.7 640.503,1024.14 712.198,1028.35C783.894,1032.55 912.991,1040.13 1004.85,945.967C1096.7,851.808 1108.05,752.764 1052.55,650.756C997.052,548.747 845.733,555.6 790.34,614.964C734.947,674.328 760.572,791.231 828.831,800.867C897.09,810.504 921.378,774.727 925.036,750.853C930.178,717.292 872.943,688.187 868.137,716.462C868.137,716.462 911.485,737.591 886.912,748.778C862.34,759.966 812.204,751.895 818.674,710.272C825.144,668.649 884.096,635.4 922.048,668.094C960,700.788 991.929,787.667 942.865,856.359C907.467,905.917 836.627,969.722 676.564,935.295C516.502,900.868 342.974,896.823 282.294,1072.03C282.294,1072.03 255.751,1155.44 305.445,1253.82C355.139,1352.19 386.353,1285.66 421.19,1309.43Z" style="fill:none;"/>
                                                    <clipPath id="_clip4">
                                                        <path d="M421.19,1309.43C421.19,1309.43 506.249,1132.86 517.532,1098.41C526.58,1070.78 551.702,1041.94 612.86,1027.7C612.86,1027.7 640.503,1024.14 712.198,1028.35C783.894,1032.55 912.991,1040.13 1004.85,945.967C1096.7,851.808 1108.05,752.764 1052.55,650.756C997.052,548.747 845.733,555.6 790.34,614.964C734.947,674.328 760.572,791.231 828.831,800.867C897.09,810.504 921.378,774.727 925.036,750.853C930.178,717.292 872.943,688.187 868.137,716.462C868.137,716.462 911.485,737.591 886.912,748.778C862.34,759.966 812.204,751.895 818.674,710.272C825.144,668.649 884.096,635.4 922.048,668.094C960,700.788 991.929,787.667 942.865,856.359C907.467,905.917 836.627,969.722 676.564,935.295C516.502,900.868 342.974,896.823 282.294,1072.03C282.294,1072.03 255.751,1155.44 305.445,1253.82C355.139,1352.19 386.353,1285.66 421.19,1309.43Z"/>
                                                    </clipPath>
                                                    <g clip-path="url(#_clip4)">
                                                        <path d="M829.435,741.114C829.435,741.114 795.748,704.508 833.603,662.076C860.974,631.393 965.826,615.769 999.016,720.448C1032.2,825.128 917.745,967.86 764.555,941.682L874.566,852.538L947.918,792.758L937.447,705.039L886.912,678.599L853.798,716.541L829.435,741.114Z" style="fill:none;stroke:white;stroke-width:16.1px;"/>
                                                        <path d="M526.868,1350.83C526.868,1350.83 418.41,1252.96 453.89,1130.2C489.371,1007.44 652.831,994.225 746.67,1034.53L704.189,1176.54L646.282,1360.82L526.868,1350.83Z" style="fill:none;stroke:white;stroke-width:16.1px;"/>
                                                    </g>
                                                    <path d="M421.19,1309.43C421.19,1309.43 506.249,1132.86 517.532,1098.41C526.58,1070.78 551.702,1041.94 612.86,1027.7C612.86,1027.7 640.503,1024.14 712.198,1028.35C783.894,1032.55 912.991,1040.13 1004.85,945.967C1096.7,851.808 1108.05,752.764 1052.55,650.756C997.052,548.747 845.733,555.6 790.34,614.964C734.947,674.328 760.572,791.231 828.831,800.867C897.09,810.504 921.378,774.727 925.036,750.853C930.178,717.292 872.943,688.187 868.137,716.462C868.137,716.462 911.485,737.591 886.912,748.778C862.34,759.966 812.204,751.895 818.674,710.272C825.144,668.649 884.096,635.4 922.048,668.094C960,700.788 991.929,787.667 942.865,856.359C907.467,905.917 836.627,969.722 676.564,935.295C516.502,900.868 342.974,896.823 282.294,1072.03C282.294,1072.03 255.751,1155.44 305.445,1253.82C355.139,1352.19 386.353,1285.66 421.19,1309.43Z" style="fill:none;stroke:white;stroke-width:16.74px;"/>
                                                </g>
                                            </g>
                                        </g>
                                    </g>
                                </g>
                            </g>
                        </g>
                    </g>
                    <path d="M6461.17,975.376C6461.17,838.452 6350.01,727.287 6213.08,727.287L5593.97,727.287C5457.04,727.287 5345.88,838.452 5345.88,975.376L5345.88,1594.49C5345.88,1731.41 5457.04,1842.58 5593.97,1842.58L6213.08,1842.58C6350.01,1842.58 6461.17,1731.41 6461.17,1594.49L6461.17,975.376Z" style="fill:none;stroke:white;stroke-width:25px;"/>
                </g>
            </g>
        </g>
    </g>
</svg>
