<?xml version="1.0" encoding="UTF-8" standalone="no"?>
<!DOCTYPE svg PUBLIC "-//W3C//DTD SVG 1.1//EN" "http://www.w3.org/Graphics/SVG/1.1/DTD/svg11.dtd">
<svg width="100%" height="100%" viewBox="0 0 1166 198" version="1.1" xmlns="http://www.w3.org/2000/svg" xmlns:xlink="http://www.w3.org/1999/xlink" xml:space="preserve" xmlns:serif="http://www.serif.com/" style="fill-rule:evenodd;clip-rule:evenodd;stroke-linejoin:round;stroke-miterlimit:2;">
    <g transform="matrix(1,0,0,1,-806.324,-8994.32)">
        <g transform="matrix(0.308113,0,0,0.0521025,540.808,8682.13)">
            <rect id="Artboard6" x="861.749" y="5991.92" width="3781.08" height="3781.08" style="fill:none;"/>
            <g id="Artboard61" serif:id="Artboard6">
                <g transform="matrix(1.46752,0,0,8.6783,1502.28,-50395.8)">
                    <g transform="matrix(288,0,0,288,1688.77,6665.81)">
                        <path d="M0.063,0.216L0.063,-0.474L0.157,-0.474L0.163,-0.427C0.184,-0.446 0.208,-0.461 0.233,-0.47C0.258,-0.479 0.288,-0.484 0.323,-0.484C0.391,-0.484 0.444,-0.466 0.482,-0.429C0.52,-0.392 0.539,-0.33 0.539,-0.245C0.539,-0.16 0.519,-0.096 0.48,-0.054C0.441,-0.011 0.387,0.01 0.319,0.01C0.262,0.01 0.213,-0.003 0.172,-0.03L0.172,0.216L0.063,0.216ZM0.291,-0.072C0.383,-0.072 0.429,-0.13 0.429,-0.246C0.429,-0.302 0.419,-0.342 0.398,-0.366C0.377,-0.389 0.343,-0.401 0.294,-0.401C0.245,-0.401 0.205,-0.384 0.172,-0.351L0.172,-0.114C0.187,-0.101 0.205,-0.091 0.224,-0.084C0.243,-0.076 0.265,-0.072 0.291,-0.072Z" style="fill:white;fill-rule:nonzero;"/>
                    </g>
                    <g transform="matrix(288,0,0,288,1856.38,6665.81)">
                        <path d="M0.063,-0L0.063,-0.474L0.163,-0.474L0.169,-0.419C0.192,-0.434 0.219,-0.447 0.25,-0.459C0.281,-0.471 0.312,-0.479 0.343,-0.484L0.343,-0.401C0.324,-0.398 0.304,-0.393 0.283,-0.387C0.261,-0.38 0.24,-0.373 0.221,-0.366C0.202,-0.358 0.185,-0.35 0.172,-0.342L0.172,-0L0.063,-0Z" style="fill:white;fill-rule:nonzero;"/>
                    </g>
                    <g transform="matrix(288,0,0,288,1954.01,6665.81)">
                        <path d="M0.29,0.01C0.205,0.01 0.142,-0.011 0.103,-0.054C0.063,-0.097 0.043,-0.158 0.043,-0.237C0.043,-0.316 0.063,-0.377 0.103,-0.42C0.143,-0.463 0.205,-0.484 0.29,-0.484C0.375,-0.484 0.438,-0.463 0.478,-0.42C0.518,-0.377 0.538,-0.316 0.538,-0.237C0.538,-0.158 0.518,-0.097 0.479,-0.054C0.439,-0.011 0.376,0.01 0.29,0.01ZM0.29,-0.082C0.34,-0.082 0.376,-0.094 0.397,-0.119C0.418,-0.143 0.428,-0.182 0.428,-0.237C0.428,-0.292 0.418,-0.331 0.397,-0.355C0.376,-0.379 0.34,-0.391 0.29,-0.391C0.241,-0.391 0.206,-0.379 0.185,-0.355C0.164,-0.331 0.153,-0.292 0.153,-0.237C0.153,-0.182 0.164,-0.143 0.185,-0.119C0.206,-0.094 0.241,-0.082 0.29,-0.082Z" style="fill:white;fill-rule:nonzero;"/>
                    </g>
                </g>
            </g>
        </g>
    </g>
</svg>
